<svg width="24" height="25" viewBox="0 0 24 25" fill="none" xmlns="http://www.w3.org/2000/svg">
<g id="Vector">
<path fill-rule="evenodd" clip-rule="evenodd" d="M15.3254 14.7583C15.3254 17.2035 17.8596 18.8993 17.8596 16.7496C17.8596 14.4293 15.3254 13.1772 15.3254 14.7583Z" fill="white"/>
<path fill-rule="evenodd" clip-rule="evenodd" d="M7.17656 7.76525C8.54645 9.79065 11.5956 9.77531 10.3912 7.99474C9.09135 6.07284 6.29074 6.45558 7.17656 7.76525Z" fill="white"/>
<path fill-rule="evenodd" clip-rule="evenodd" d="M6.92526 12.463C9.28514 13.1029 11.5848 11.1006 9.5102 10.5381C7.27092 9.93089 5.39931 12.0493 6.92526 12.463Z" fill="white"/>
<path fill-rule="evenodd" clip-rule="evenodd" d="M12.807 14.6726C11.3403 16.6291 12.3507 19.5061 13.6402 17.7861C15.0319 15.9297 13.7554 13.4076 12.807 14.6726Z" fill="white"/>
<path fill-rule="evenodd" clip-rule="evenodd" d="M10.3541 13.1672C8.12501 14.172 7.62064 17.1794 9.58025 16.296C11.6954 15.3424 11.7954 12.5174 10.3541 13.1672Z" fill="white"/>
<path fill-rule="evenodd" clip-rule="evenodd" d="M21.451 17.8125C19.578 19.7631 16.9441 20.9775 14.0265 20.9775C8.34199 20.9775 3.73381 16.369 3.73381 10.6842C3.73381 7.80009 4.92045 5.19354 6.83153 3.32474L4.28458 0.593323C1.6432 3.14421 0 6.72209 0 10.6842C0 18.4313 6.27985 24.7115 14.0265 24.7115C17.9283 24.7115 21.4574 23.1177 24 20.5462L21.451 17.8125Z" fill="white"/>
</g>
</svg>
