<svg width="36" height="37" viewBox="0 0 36 37" fill="none" xmlns="http://www.w3.org/2000/svg">
<g id="Frame 5">
<rect x="1" y="1.39966" width="34" height="34" rx="17" fill="#FEFFBB"/>
<rect x="1" y="1.39966" width="34" height="34" rx="17" stroke="#C29800" stroke-width="2"/>
<path id="Vector" d="M12 20.3997H20V18.3997H12V20.3997ZM12 17.3997H24V15.3997H12V17.3997ZM12 14.3997H24V12.3997H12V14.3997ZM8 28.3997V10.3997C8 9.84966 8.196 9.37899 8.588 8.98766C8.98 8.59632 9.45067 8.40032 10 8.39966H26C26.55 8.39966 27.021 8.59566 27.413 8.98766C27.805 9.37966 28.0007 9.85032 28 10.3997V22.3997C28 22.9497 27.8043 23.4207 27.413 23.8127C27.0217 24.2047 26.5507 24.4003 26 24.3997H12L8 28.3997ZM11.15 22.3997H26V10.3997H10V23.5247L11.15 22.3997Z" fill="#C29800"/>
</g>
</svg>
