<svg width="75" height="75" viewBox="0 0 75 75" fill="none" xmlns="http://www.w3.org/2000/svg">
<g id="Group 39944">
<g id="Ellipse 326">
<circle cx="37.5" cy="37.6497" r="32" fill="#1D63FF"/>
<circle cx="37.5" cy="37.6497" r="34.5" stroke="#2E7AFF" stroke-opacity="0.2" stroke-width="5"/>
</g>
<path id="Star 1" d="M36.6234 25.2464C37.0031 24.5547 37.9969 24.5547 38.3766 25.2464L41.651 31.211C41.7946 31.4726 42.0476 31.6564 42.3408 31.7121L49.0253 32.9832C49.8005 33.1306 50.1076 34.0757 49.5671 34.6505L44.9063 39.6079C44.7019 39.8253 44.6052 40.1227 44.6428 40.4188L45.4996 47.1688C45.599 47.9516 44.795 48.5357 44.0813 48.1993L37.9263 45.2986C37.6563 45.1713 37.3437 45.1713 37.0737 45.2986L30.9187 48.1993C30.205 48.5357 29.401 47.9516 29.5004 47.1688L30.3572 40.4188C30.3948 40.1227 30.2981 39.8253 30.0937 39.6079L25.4329 34.6505C24.8924 34.0757 25.1995 33.1306 25.9747 32.9832L32.6592 31.7121C32.9524 31.6564 33.2054 31.4726 33.349 31.211L36.6234 25.2464Z" fill="white"/>
</g>
</svg>
