<svg width="50" height="41" viewBox="0 0 50 41" fill="none" xmlns="http://www.w3.org/2000/svg">
<rect x="15" y="3.45264" width="34" height="34" rx="17" fill="#D9FFCC"/>
<rect x="15" y="3.45264" width="34" height="34" rx="17" stroke="#31BC00" stroke-width="2"/>
<path d="M34.4 19.6526V19.6606M26.5384 17.555C26.1876 17.2853 25.9181 16.9239 25.7598 16.5106C25.6015 16.0973 25.5605 15.6484 25.6414 15.2133C25.7223 14.7782 25.9219 14.374 26.2182 14.0452C26.5145 13.7165 26.8959 13.4761 27.3203 13.3506C27.7447 13.2251 28.1955 13.2194 28.6229 13.3341C29.0503 13.4487 29.4377 13.6794 29.7423 14.0005C30.0468 14.3215 30.2566 14.7206 30.3486 15.1535C30.4405 15.5864 30.411 16.0362 30.2632 16.4534" stroke="#31BC00" stroke-width="2" stroke-linecap="round" stroke-linejoin="round"/>
<path d="M35.2 14.0526V17.095C36.1901 17.668 36.9439 18.5746 37.3264 19.6526H38.3992C38.6114 19.6526 38.8149 19.7369 38.9649 19.8869C39.1149 20.037 39.1992 20.2404 39.1992 20.4526V22.0526C39.1992 22.2648 39.1149 22.4683 38.9649 22.6183C38.8149 22.7683 38.6114 22.8526 38.3992 22.8526H37.3256C37.0568 23.6126 36.6 24.2926 35.9992 24.831V26.4526C35.9992 26.7709 35.8728 27.0761 35.6478 27.3011C35.4227 27.5262 35.1175 27.6526 34.7992 27.6526C34.481 27.6526 34.1758 27.5262 33.9507 27.3011C33.7257 27.0761 33.5992 26.7709 33.5992 26.4526V25.9862C33.3349 26.0306 33.0673 26.0529 32.7992 26.0526H29.5992C29.3312 26.0529 29.0636 26.0306 28.7992 25.9862V26.4526C28.7992 26.7709 28.6728 27.0761 28.4478 27.3011C28.2227 27.5262 27.9175 27.6526 27.5992 27.6526C27.281 27.6526 26.9758 27.5262 26.7507 27.3011C26.5257 27.0761 26.3992 26.7709 26.3992 26.4526V24.831C25.6744 24.183 25.1635 23.3301 24.934 22.3853C24.7046 21.4405 24.7675 20.4483 25.1144 19.54C25.4613 18.6317 26.0758 17.8502 26.8767 17.2989C27.6776 16.7476 28.627 16.4525 29.5992 16.4526H31.5992L35.2 14.0526Z" stroke="#31BC00" stroke-width="2" stroke-linecap="round" stroke-linejoin="round"/>
<rect x="9" y="2.45264" width="36" height="36" rx="18" fill="#FFCCF7"/>
<rect x="9" y="2.45264" width="36" height="36" rx="18" stroke="#DA00B7" stroke-width="2"/>
<path d="M29.5334 19.6081V19.6166M21.235 17.394C20.8647 17.1093 20.5802 16.7278 20.4131 16.2916C20.246 15.8554 20.2028 15.3815 20.2882 14.9222C20.3736 14.463 20.5843 14.0363 20.8971 13.6893C21.2098 13.3423 21.6124 13.0885 22.0604 12.9561C22.5083 12.8236 22.9842 12.8175 23.4353 12.9386C23.8865 13.0596 24.2954 13.3031 24.6169 13.642C24.9383 13.9809 25.1598 14.4021 25.2569 14.8591C25.3539 15.316 25.3227 15.7909 25.1668 16.2312" stroke="#DA00B7" stroke-width="2" stroke-linecap="round" stroke-linejoin="round"/>
<path d="M30.3779 13.697V16.9084C31.4229 17.5132 32.2186 18.4702 32.6224 19.6081H33.7548C33.9788 19.6081 34.1936 19.6971 34.3519 19.8555C34.5103 20.0138 34.5993 20.2286 34.5993 20.4526V22.1415C34.5993 22.3654 34.5103 22.5802 34.3519 22.7386C34.1936 22.8969 33.9788 22.9859 33.7548 22.9859H32.6216C32.3378 23.7881 31.8557 24.5059 31.2215 25.0742V26.7859C31.2215 27.1219 31.088 27.444 30.8505 27.6816C30.6129 27.9191 30.2907 28.0526 29.9548 28.0526C29.6189 28.0526 29.2967 27.9191 29.0591 27.6816C28.8216 27.444 28.6881 27.1219 28.6881 26.7859V26.2936C28.4091 26.3405 28.1266 26.3639 27.8437 26.3637H24.4659C24.183 26.3639 23.9005 26.3405 23.6215 26.2936V26.7859C23.6215 27.1219 23.488 27.444 23.2505 27.6816C23.0129 27.9191 22.6908 28.0526 22.3548 28.0526C22.0189 28.0526 21.6967 27.9191 21.4591 27.6816C21.2216 27.444 21.0881 27.1219 21.0881 26.7859V25.0742C20.323 24.3902 19.7837 23.4899 19.5415 22.4926C19.2993 21.4953 19.3657 20.448 19.7319 19.4893C20.0981 18.5305 20.7468 17.7056 21.5921 17.1236C22.4375 16.5417 23.4396 16.2302 24.4659 16.2304H26.577L30.3779 13.697Z" stroke="#DA00B7" stroke-width="2" stroke-linecap="round" stroke-linejoin="round"/>
<rect x="1" y="1.45264" width="38" height="38" rx="19" fill="#CDCCFF"/>
<rect x="1" y="1.45264" width="38" height="38" rx="19" stroke="#0400DA" stroke-width="2"/>
<path d="M22.6666 19.5637V19.5726M13.9315 17.233C13.5417 16.9334 13.2422 16.5318 13.0663 16.0726C12.8905 15.6134 12.8449 15.1146 12.9348 14.6311C13.0247 14.1477 13.2466 13.6986 13.5758 13.3333C13.905 12.9681 14.3288 12.701 14.8003 12.5615C15.2718 12.4221 15.7727 12.4157 16.2476 12.5431C16.7225 12.6706 17.153 12.9268 17.4914 13.2836C17.8297 13.6403 18.0629 14.0837 18.165 14.5647C18.2672 15.0457 18.2344 15.5455 18.0702 16.009" stroke="#0400DA" stroke-width="2" stroke-linecap="round" stroke-linejoin="round"/>
<path d="M23.5556 13.3414V16.7219C24.6556 17.3585 25.4932 18.3659 25.9183 19.5637H27.1103C27.346 19.5637 27.5721 19.6573 27.7388 19.824C27.9055 19.9907 27.9992 20.2168 27.9992 20.4525V22.2303C27.9992 22.4661 27.9055 22.6922 27.7388 22.8589C27.5721 23.0256 27.346 23.1192 27.1103 23.1192H25.9174C25.6187 23.9637 25.1112 24.7192 24.4436 25.3174V27.1192C24.4436 27.4728 24.3031 27.812 24.0531 28.062C23.803 28.3121 23.4639 28.4525 23.1103 28.4525C22.7566 28.4525 22.4175 28.3121 22.1675 28.062C21.9174 27.812 21.7769 27.4728 21.7769 27.1192V26.601C21.4832 26.6504 21.1859 26.675 20.888 26.6748H17.3325C17.0346 26.675 16.7373 26.6504 16.4436 26.601V27.1192C16.4436 27.4728 16.3031 27.812 16.0531 28.062C15.803 28.3121 15.4639 28.4525 15.1103 28.4525C14.7566 28.4525 14.4175 28.3121 14.1675 28.062C13.9174 27.812 13.7769 27.4728 13.7769 27.1192V25.3174C12.9716 24.5974 12.4038 23.6498 12.1489 22.6C11.894 21.5502 11.9639 20.4477 12.3493 19.4385C12.7348 18.4293 13.4176 17.561 14.3074 16.9484C15.1973 16.3358 16.2522 16.0079 17.3325 16.0081H19.5547L23.5556 13.3414Z" stroke="#0400DA" stroke-width="2" stroke-linecap="round" stroke-linejoin="round"/>
</svg>
