<svg width="36" height="37" viewBox="0 0 36 37" fill="none" xmlns="http://www.w3.org/2000/svg">
<g id="Frame 5">
<rect x="1" y="1.59332" width="34" height="34" rx="17" fill="#D9FFCC"/>
<rect x="1" y="1.59332" width="34" height="34" rx="17" stroke="#31BC00" stroke-width="2"/>
<path id="Vector" d="M20 8.59332H12C11.4696 8.59332 10.9609 8.80404 10.5858 9.17911C10.2107 9.55418 10 10.0629 10 10.5933V26.5933C10 27.1238 10.2107 27.6325 10.5858 28.0075C10.9609 28.3826 11.4696 28.5933 12 28.5933H24C24.5304 28.5933 25.0391 28.3826 25.4142 28.0075C25.7893 27.6325 26 27.1238 26 26.5933V14.5933L20 8.59332ZM24 26.5933H12V10.5933H19V15.5933H24V26.5933Z" fill="#31BC00"/>
</g>
</svg>
